<svg xmlns="http://www.w3.org/2000/svg" width="96" height="48" fill="none">
  <path fill="#1937FF" fill-rule="evenodd" d="M49.6 0v48H96V0H49.6zM0 0v48h46.4V0H0z" clip-rule="evenodd"/>
  <path fill="#fff" fill-rule="evenodd" d="M93.6 2.4v43.2H52V2.4h41.6zM25.14 33.97a3.9 3.9 0 01-.77-2.5c0-1.04.25-1.88.73-2.5.54-.67 1.32-1 2.33-1h.08v-1.75h-.08c-1.58 0-2.8.5-3.62 1.51a5.75 5.75 0 00-1.13 3.76c0 1.53.4 2.79 1.22 3.74.86 1 2.05 1.51 3.55 1.51h.08V35h-.08c-.99 0-1.76-.34-2.31-1.03zm-6.02 0a3.9 3.9 0 01-.77-2.5c0-1.04.25-1.88.74-2.5.53-.67 1.3-1 2.32-1h.08v-1.75h-.08c-1.58 0-2.8.5-3.62 1.51a5.75 5.75 0 00-1.13 3.76c0 1.53.41 2.79 1.22 3.74.86 1 2.06 1.51 3.56 1.51h.07V35h-.07c-1 0-1.77-.34-2.32-1.03zM24.65 17v4.86h1.8V11.8h-1.8v3.5h-.98c-.4 0-.7-.1-.89-.28a.7.7 0 01-.2-.54v-2.68h-1.8v2.87c0 .66.25 1.22.75 1.66.5.44 1.1.66 1.8.66h1.32zm17.2 8.98l-.14.14-3.59 3.85v-3.51h-1.56v9.98h1.56v-4.1l2.28-2.48.23 6.58h1.6l-.39-10.46zm-11.76-4.12h1.8v-8.38h1.5v-1.67h-4.8v1.67h1.5v8.38zm4.13 4.26l-3.58 3.85v-3.51h-1.57v9.98h1.57v-4.1l2.27-2.48.23 6.58h1.6l-.39-10.46-.13.14zm3.24-12.64h.65c.46 0 .78.15.97.44.16.24.27.72.34 1.37h-2l.04-1.8zm-.08 3.47h2.24l.5 4.9h1.82l-.83-7.34c0-.96-.29-1.68-.86-2.14a2.86 2.86 0 00-1.85-.56h-2.66l-.33 10.05h1.8l.17-4.9zM6.07 13.48h2.22v8.38h1.8V11.8H4.27v10.05h1.8v-8.38zm.84 18.43c-.13.26-.28.38-.45.38-.16 0-.3-.1-.42-.34-.12-.24-.19-.6-.19-1.05v-2.94h.07c.37 0 .65.21.87.64.21.45.32 1.16.32 2.13 0 .5-.07.9-.2 1.18zm-.99-5.44H4.26v9.97h1.6v-2.9c.3.28.64.45 1 .45.54 0 .98-.3 1.32-.86.39-.64.58-1.59.58-2.82 0-.85-.16-1.62-.46-2.27a2.47 2.47 0 00-2.38-1.57zm10.7-7.07c-.24.65-.57.97-1.01.97-.43 0-.75-.32-.98-.98a7.88 7.88 0 01-.37-2.6c0-1.06.12-1.94.36-2.6.23-.63.55-.94.99-.94.48 0 .83.31 1.06.95.2.6.31 1.45.31 2.56 0 1.07-.12 1.96-.37 2.64zM18 20.53c.53-.94.8-2.21.8-3.77 0-1.54-.28-2.8-.83-3.75-.56-.96-1.36-1.45-2.37-1.45-.95 0-1.71.49-2.26 1.46-.53.95-.8 2.21-.8 3.75 0 1.6.26 2.89.77 3.83.52.97 1.3 1.46 2.3 1.46 1.01 0 1.82-.51 2.39-1.53zm-4.5 13.5c-.2.66-.52 1-.92 1-.38 0-.68-.34-.9-1a8.84 8.84 0 01-.32-2.62c0-1.07.1-1.95.32-2.61.2-.64.51-.97.9-.97.45 0 .76.32.97.98.19.6.28 1.46.28 2.57 0 1.08-.1 1.97-.33 2.66zm1.19-6.37c-.5-.96-1.2-1.44-2.1-1.44-.86 0-1.53.49-2.01 1.45-.48.94-.72 2.2-.72 3.73 0 1.58.23 2.86.68 3.8.47.96 1.15 1.44 2.04 1.44.9 0 1.62-.5 2.13-1.5.48-.95.72-2.2.72-3.76 0-1.53-.25-2.78-.74-3.72z" clip-rule="evenodd"/>
  <path fill="#1937FF" fill-rule="evenodd" d="M63.55 15.73c.34.78.91 1.58 2.45 2.66.34.24.72.75.43 1.46-.29.7-.83 1.71-.5 2.1.32.4 1.48.6 2.43.2 0 0 .2.62.54 1.01 0 0-.16.34-.7.17 0 0 .2.5-.08 1.05 0 0-.64-.11-.9-.71 0 0-.26.47-.77.63 0 0-.42-.22-.32-1.08 0 0-.31.77-1.26.9 0 0-.54-.71.17-1.66 0 0-.51.46-1.43.24 0 0-.15-.49.68-1.16 0 0-.94-.03-1.3-.86 0 0 .4-.5 1.38-.39 0 0-.91-.2-1.11-1.32 0 0 .65-.43 1.69.26 0 0-.19-.35-.62-.7-.44-.36-.96-1.35-.78-2.8zm3.8 11.24a2.74 2.74 0 01-.32-.55c.16 1.36.22 2.27.93 3.15 0 0 .43-.59.15-2.02-.13-.04-.26-.1-.38-.18 0 0 .16.58.06 1.16 0 0-.26-.2-.45-1.56zm-1.24-.14a4.25 4.25 0 01-.33-.5c-.06.78-.26 2.85.41 3.5 0 0 .46-.35.63-3.37-.1.17-.27.35-.36.45 0 0 .12.96-.22 1.63 0 0-.33-.26-.13-1.7zm-1.6 1.59c.56-.7.73-2.8.73-2.8a3.66 3.66 0 00.33-.26l.01.24c-.08 1.26-.18 2.55-.56 3.2-.38.64-1.06.96-1.06.96-.65-1.18.13-2.77.78-3.87l.25-.11c-.23.85-.67 1.86-.49 2.64zm-1.61-3.64c0 .14.02.25.04.3l.03.09c-.54.55-.94 1.07-1.75 2.21-.8 1.15-2.07 1.2-2.07 1.2.12-.93.37-1.67 1.05-2.46s1.55-1.51 2.19-2c.16.09.38.14.65.1h.06a.96.96 0 00-.17.33c-.48.29-1.89 1.02-2.46 2.2 0 0 .9-.28 2.43-1.97zm-1-1.16l.04-.1a.84.84 0 01.06-.08c-.52.2-2.38.93-2.99 1.25a4.21 4.21 0 00-1.94 2.53s1.25.12 2.29-.76c1.04-.89 2.24-2.12 2.76-2.51a1.17 1.17 0 01-.12-.14s-1.4 1.28-2.89 1.83c0 0 .32-.59.9-1.02.72-.52 1.26-.7 1.88-1zm-1.07-.87l.06-.15c-.62.13-2.15.32-2.84.54-.68.22-1.92.73-2.66 2.18 0 0 1.08.34 3.12-.65a17.97 17.97 0 013.07-1.3 1.43 1.43 0 01-.65-.2 8 8 0 01-2.98.84s.53-.38 1.1-.63c.57-.25 1.17-.46 1.78-.63zm.05-1.04c.2.1.35.15.61.18-.15.1-.29.22-.4.37-.71.21-1.94.45-3.96.6-2.02.15-3.1-.24-3.1-.24.7-.44 1.83-.89 2.59-1.04.76-.15 2.75-.13 3.62-.26.02.01.12.1.3.21-.74.07-2.31.14-3.12.56 0 0 1.5.21 3.46-.38zm-.15-1.2c.1-.05.22-.12.37-.17-1.02-.32-2.43-.83-4.54-.97a11.2 11.2 0 00-3.25.14s1.41 1.02 3.03 1.38c1.61.36 2.92.13 3.88.14.07-.11.15-.22.25-.31-1.12 0-2.99-.3-3.65-.52 0 0 1.62-.35 3.9.32zm0-1.23c0 .03.12.62.78.95-1.43-.65-4.26-1.02-5.78-1.67-2.06-.88-2.43-1.97-2.43-1.97 1.78-.05 3.21.4 4.32.75 1.3.4 3.28 1.16 3.97 1.48a1.5 1.5 0 00-.78.25 21.3 21.3 0 00-2.3-.8c-.69-.2-1.2-.23-1.63-.27 0 0 .6.41 1.61.74 1 .33 1.43.38 2.23.54zm-.12-1.61l.3.45c-2.27-.39-4.77-2.16-5.54-3.25-.78-1.1-.56-2.73-.56-2.73.75.15 2.38 1.6 2.8 2.03.42.43 1.7 1.7 2.58 2.42l.27.82c-.72-.6-1.46-1.18-2.2-1.75a6.66 6.66 0 00-1.72-1.03s.59.79 1.06 1.17a12 12 0 001.57 1.1c.41.22.62.36 1.44.77z" clip-rule="evenodd"/>
  <path fill="#1937FF" fill-rule="evenodd" d="M67.02 24.2l.18-.17c.1.13.45.58.62 1.03.14.39.27.9.34 1.2.07.3.28.92.4 1.14 0 0-.55.07-.96-.42-.4-.48-.54-.97-.6-1.47-.04-.43-.04-.87.02-1.3zm-.87.08a.7.7 0 00.2.2l.08.04.08-.02.2-.08c.07.23.1.34.13.54.02.26.07.66-.02 1-.12.4-.36.66-.49.81 0 0-.36-.4-.46-.74-.11-.36-.15-.77-.02-1.2.07-.2.16-.38.3-.55zm-1.25.04c.31-.04.6-.16.86-.35.05.13.12.32.07.57-.06.26-.23.54-.48.75-.37.3-.87.6-1.42.5 0 0-.13-.42.97-1.47zm-.42-.71c.05.38.22.61.24.63-.13.16-.6.98-1.57.85 0 0-.26-.56.38-1 .44-.31.65-.37.95-.48zm.09-.7c-.34.08-.68.08-1.01-.01l-.11-.03-.04-.11c-.5.42-1.09.49-1.3.87 0 0 .26.47.9.4a2.14 2.14 0 001.48-.85l.08-.27zm-1.12-.6c.09-.13.15-.35.35-.57a3.37 3.37 0 00-1.32.02c-.6.11-1.2.26-1.51 1.19 0 0 .38.34 1.08.19.59-.12 1.1-.39 1.4-.82zm-.26-1c-.16-.15-.3-.34-.38-.54l-.06-.12c-.51-.21-1.05-.33-1.58-.12-.53.2-.67.43-.8.64 0 0 .59.5 1.26.52a2.7 2.7 0 001.56-.39zm.16-1.1c.09-.03.19-.07.3-.09-.23-.2-.45-.52-.56-1-.24.06-.8.06-1.05-.03a1.3 1.3 0 00-1.12.15s.13.69.99.92c.8.22 1.11.17 1.44.05zm-.31-1.34l.11-.07c.02-.01.21-.13.54-.16-.28-.21-.94-.78-1.4-1.06a6.66 6.66 0 00-1.8-.74s.4 1.1.88 1.53c.49.46.83.63 1.67.5zm.87-.5c-.2-.28-.37-.66-.49-1.1-.1-.37-.32-1.28-.45-1.51a2.67 2.67 0 00-1.54-1.32s-.25 1.07.22 1.92a5.3 5.3 0 002.26 2.01zm5.17 4.98c.12.12.2.19.42.3 0 0 .3.58-.07 1.28-.3.6-.57 1.2-.8 1.83 0 0-.2-.03-.42-1.14-.14-.74-.33-.93-.52-1.19.21.11.38.15.4.15l.14.02.07-.13c.13-.27.19-.58.15-.89.33.01.51-.16.58-.25l.02-.02.03.04z" clip-rule="evenodd"/>
  <path fill="#1937FF" fill-rule="evenodd" d="M61.16 14.9v.33l.02.26c-.55-.72-1.2-1.6-1.84-2.4-.43-.54-.8-.88-1.2-1.14a5.73 5.73 0 001.39 2.23c.43.4 1.05 1.1 1.66 1.51l.06.2c.05.2.12.4.22.57.15.26.33.52.55.76l-.58-.28-.19-.08a11.2 11.2 0 01-4.02-4.13c-.67-1.32-.39-2.85-.21-3.67.76.67 1.86 1.97 2.34 2.69.58.87 1.34 2.1 1.8 3.11v.03zm23.53 5.62a2.31 2.31 0 00-.37-.18c1.02-.32 2.43-.83 4.54-.97a11.2 11.2 0 013.25.14s-1.41 1.02-3.03 1.38c-1.61.36-2.92.13-3.88.14-.07-.1-.14-.2-.25-.31 1.12 0 2.99-.3 3.65-.52 0 0-1.62-.35-3.9.32zm0-1.24c0 .03-.12.62-.79.95 1.44-.65 4.27-1.02 5.8-1.67 2.05-.88 2.42-1.97 2.42-1.97-1.78-.05-3.22.4-4.32.75-1.3.4-3.28 1.16-3.97 1.48.26.01.54.09.78.25.97-.38 1.42-.54 2.3-.8.69-.2 1.2-.23 1.63-.27 0 0-.6.41-1.61.74-1 .33-1.42.38-2.23.54zm.12-1.61l-.3.45c2.28-.39 4.77-2.16 5.55-3.25.77-1.1.55-2.73.55-2.73-.75.15-2.38 1.6-2.8 2.03-.42.43-1.7 1.7-2.58 2.42l-.27.82c.75-.62 1.65-1.32 2.2-1.75.44-.34 1.08-.8 1.72-1.03 0 0-.59.79-1.06 1.17a12 12 0 01-1.57 1.1c-.4.22-.62.36-1.44.77zm-.55-2.78v.34l-.02.26c.55-.72 1.2-1.6 1.84-2.4.43-.54.79-.88 1.2-1.14a5.73 5.73 0 01-1.39 2.23c-.43.4-1.05 1.1-1.66 1.51l-.06.2c-.05.2-.13.4-.22.57a4.2 4.2 0 01-.55.76l.58-.28.19-.08a11.2 11.2 0 004.02-4.13c.67-1.32.39-2.85.21-3.67-.76.67-1.86 1.97-2.34 2.69-.59.87-1.34 2.1-1.8 3.11v.03zM63.3 25.31c-.7.71-2.15 2.3-2.01 4.04 0 0 1.35-.44 1.9-1.46.57-1.02.91-1.66 1.15-1.9-.15.03-.3.03-.45 0l-.13-.01a6.13 6.13 0 01-1.63 2.06s-.16-.85 1.64-2.58c.03-.07.06-.15.12-.24-.17.06-.36.1-.57.09h-.02zm18.56-9.58c-.35.78-.91 1.58-2.45 2.66-.34.24-.72.75-.43 1.46.29.7.83 1.71.5 2.1-.32.4-1.48.6-2.43.2 0 0-.2.62-.54 1.01 0 0 .16.34.7.17 0 0-.2.5.08 1.05 0 0 .63-.11.9-.71 0 0 .26.47.77.63 0 0 .42-.22.32-1.08 0 0 .31.77 1.26.9 0 0 .54-.71-.17-1.66 0 0 .51.46 1.43.24 0 0 .15-.49-.68-1.16 0 0 .94-.03 1.3-.86 0 0-.4-.5-1.38-.39 0 0 .91-.2 1.11-1.32 0 0-.65-.43-1.69.26 0 0 .19-.35.62-.7.43-.36.96-1.35.78-2.8zm-3.8 11.24c.14-.18.24-.37.32-.55-.16 1.36-.22 2.27-.93 3.15 0 0-.43-.59-.15-2.02.12-.03.25-.1.38-.18 0 0-.16.58-.06 1.16 0 0 .26-.2.44-1.56zm1.24-.14c.12-.16.23-.33.33-.5.06.78.26 2.85-.41 3.5 0 0-.47-.35-.63-3.37.1.17.27.35.35.45 0 0-.1.96.23 1.63 0 0 .33-.26.13-1.7zm1.6 1.59c-.56-.7-.73-2.8-.73-2.8a2.95 2.95 0 01-.33-.26l-.01.24c.08 1.26.18 2.55.56 3.2.38.64 1.06.96 1.06.96.65-1.18-.13-2.77-.78-3.87a2.14 2.14 0 01-.25-.11c.23.85.67 1.86.49 2.64zm1.6-3.64c.01.14-.01.25-.03.3l-.03.09c.54.55.94 1.07 1.75 2.21.8 1.15 2.07 1.2 2.07 1.2a4.3 4.3 0 00-1.05-2.46c-.68-.79-1.55-1.51-2.19-2a1.15 1.15 0 01-.71.1 1 1 0 01.17.33c.48.29 1.89 1.02 2.46 2.2 0 0-.9-.28-2.43-1.97zm1.02-1.16l-.06-.1a.86.86 0 00-.05-.08c.52.2 2.38.93 2.99 1.25.6.32 1.47 1.05 1.94 2.53 0 0-1.25.12-2.29-.76-1.04-.89-2.25-2.12-2.76-2.51l.12-.14s1.4 1.28 2.88 1.83c0 0-.31-.59-.9-1.02-.71-.52-1.25-.7-1.87-1zm1.06-.87l-.06-.15c.61.13 2.15.32 2.84.54.68.21 1.92.73 2.66 2.18 0 0-1.08.34-3.12-.65a18 18 0 00-3.07-1.3c.31-.02.53-.13.65-.2a8 8 0 002.98.84s-.54-.38-1.1-.63c-.57-.25-1.17-.46-1.78-.63zm-.05-1.04c-.2.1-.35.15-.61.18.14.09.28.21.4.37.71.21 1.94.45 3.96.6 2.02.15 3.1-.24 3.1-.24-.7-.44-1.83-.89-2.59-1.04-.76-.15-2.75-.13-3.63-.26-.09.08-.18.15-.28.21.73.07 2.3.14 3.1.56 0 0-1.48.21-3.45-.38z" clip-rule="evenodd"/>
  <path fill="#1937FF" fill-rule="evenodd" d="M78.4 24.2a1.89 1.89 0 01-.18-.17c-.1.13-.45.58-.62 1.03-.14.39-.28.9-.34 1.2-.07.3-.28.92-.4 1.14 0 0 .55.07.96-.42.4-.48.54-.97.6-1.47.04-.43.04-.87-.02-1.3zm.87.08a.71.71 0 01-.2.2l-.08.04-.08-.02a1.39 1.39 0 01-.2-.08c-.07.23-.1.34-.13.54-.02.26-.07.66.02 1 .12.4.35.66.49.81 0 0 .36-.4.46-.74.11-.36.15-.77.02-1.2-.07-.2-.16-.38-.3-.55zm1.25.04a1.81 1.81 0 01-.86-.35c-.05.13-.12.32-.07.57.06.26.23.54.48.75.37.3.87.6 1.42.5 0 0 .13-.42-.97-1.47zm.42-.71c-.05.38-.22.61-.24.63.13.16.6.98 1.57.85 0 0 .26-.56-.38-1-.44-.31-.65-.37-.95-.48zm-.09-.7c.26.06.6.09 1.01-.01l.11-.03.04-.11c.5.42 1.09.49 1.3.87 0 0-.26.47-.9.4a2.15 2.15 0 01-1.48-.85l-.08-.27zm1.13-.6c-.1-.13-.16-.35-.36-.57.44-.08.89-.08 1.32.02.6.11 1.2.26 1.51 1.19 0 0-.38.34-1.08.19a2.16 2.16 0 01-1.4-.82zm.25-1c.15-.14.28-.31.38-.54l.05-.12c.52-.21 1.06-.33 1.59-.12.53.2.66.43.8.64 0 0-.59.5-1.26.52a2.7 2.7 0 01-1.56-.39zm-.16-1.1l-.3-.09c.23-.2.45-.52.56-1 .24.06.8.06 1.06-.03.24-.1.73-.1 1.11.15 0 0-.12.69-.99.92-.8.22-1.1.17-1.44.05zm.31-1.34l-.11-.07a1.21 1.21 0 00-.54-.16c.28-.21.94-.78 1.4-1.06.52-.3 1.37-.68 1.8-.74 0 0-.4 1.1-.88 1.53-.49.46-.83.63-1.67.5zm-.87-.5c.2-.28.37-.66.49-1.1.1-.37.32-1.28.45-1.51.14-.24.61-1.06 1.54-1.32 0 0 .25 1.07-.22 1.92a5.3 5.3 0 01-2.26 2.01zm-5.17 4.98a1.4 1.4 0 01-.41.3s-.3.58.06 1.28c.36.7.66 1.43.8 1.83 0 0 .2-.03.42-1.14.14-.74.33-.93.52-1.19-.13.07-.26.12-.4.15l-.14.02-.07-.13c-.13-.27-.19-.58-.15-.89a.69.69 0 01-.58-.25l-.02-.02-.03.04z" clip-rule="evenodd"/>
  <path fill="#1937FF" fill-rule="evenodd" d="M82.11 25.3c.7.72 2.15 2.32 2.01 4.05 0 0-1.35-.44-1.9-1.46-.56-1.02-.91-1.66-1.14-1.9.15.03.3.03.44 0l.13-.01c.34.64 1.02 1.7 1.63 2.06 0 0 .16-.85-1.64-2.58a1.61 1.61 0 00-.12-.24c.17.06.36.1.57.09h.02zM71.65 11.5c0-.12.48-.23 1.06-.23.58 0 1.06.1 1.06.23s-.48.24-1.06.24c-.58 0-1.06-.1-1.06-.24zm-3.59 1.26c0-.07.3-.13.69-.13.37 0 .68.06.68.13s-.3.12-.68.12c-.38 0-.69-.05-.69-.12zm4.86-.75a.21.21 0 01-.21.22.21.21 0 01-.2-.22c0-.11.08-.2.2-.2.11 0 .2.09.2.2zm-1.34-.73A7.4 7.4 0 0171 9.57c0-.13.15-.23.3-.27.13-.05.26-.06.35.02.19.14.36 1.3.42 1.79-.17.03-.34.08-.5.17zm.64-.19l.27-.02c-.05-.46-.2-1.23-.3-1.53-.1-.3-.21-.53-.4-.58 0 0 .15.42.23.86.08.44.15.86.2 1.27zm-1.12 1.55c.4-.1.79-.53.79-.53-.63.1-.79.53-.79.53zm.59-.04c-.54.32-1.15.27-1.15.27.12-.22.23-.42.56-.67.34-.25.9-.31 1.11-.28-.05.16-.27.52-.52.68zm-2.02.91v-.04c-.54.07-1.16.04-1.16.04.03.2.11.36.25.45.04-.44.9-.45.9-.45zm-1.77-.59s.67.26 1.35.23c.67-.04 1.9-.05 2.31-.25 0 0-.07.26-.39.4 0 0 .17 0 .34.16 0 0-.1.21-.38.33 0 0 .5.54 1.05.5 0 0-.25.33-.8.2-.57-.12-.75-.44-.85-.57 0 0 .08.3.04.43 0 0-.24-.01-.44-.26 0 0 .14.25.17.46 0 0-.15.02-.43-.15 0 0 .06.15.07.33 0 0-.65-.21-.96-.52v.33s-1-.1-1.08-1.62zm-.15.11c.02.33.1.65.21.88 0 0-.4-.3-.49-.57-.1-.26-.12-.43.28-.31zm-.8 1.24a.17.17 0 00.17-.16.17.17 0 00-.17-.17.17.17 0 00-.16.17c0 .09.07.16.16.16zm.97-.2c.27.13.5.42.5.42-.4.1-.58.22-.58.22a1.12 1.12 0 00-1.4 0c-.42-.24-.5-.83-.29-1.15.2-.31.68-.26.9-.2.14.46.63.6.87.72zm.6.53s.27.38.48.55c0 0-1.04-.01-1.3.91 0 0-.36-.56-.1-.93.28-.4.54-.45.91-.53z" clip-rule="evenodd"/>
  <path fill="#1937FF" fill-rule="evenodd" d="M69.65 14.83l.44.13v-.3c.1.03.23.06.33.07 0 0 .34.77.6 1.08 0 0 .01.17-.13.42 0 0-.19-.45-.53-.81-.2-.2-.31-.31-.71-.6zm-.88-.17c.1.03.64.2.9.4.32.23.55.5.51.98 0 0-.26-.37-.55-.54-.23-.14-.64-.5-.86-.84zm0-3.46c.1 0 .3.04.3.2 0 .17-.25.57-.32.74-.07-.17-.32-.57-.32-.73 0-.17.2-.21.29-.21h.06zm-.21 1.27c-.05-.23-.14-.83-.27-.96-.14-.13-.33-.14-.42-.13a.18.18 0 00-.17.16v.08c.05.14.48.8.53.88.1-.02.08-.01.33-.03zm.38 0c.05-.23.13-.83.27-.96.13-.13.33-.14.42-.13a.18.18 0 01.16.24c-.04.14-.47.8-.53.88-.1-.02-.08-.01-.32-.03zm.28-2.08h-.34v-.38h-.27v.38h-.34v.24h.34v.45h.27v-.45h.34v-.24zm-4.06 2.46c0-.08 0-.15.02-.22.02-.16.03-.32 0-.48-.23.1-.4.16-.73.7 0 0 .53-.33.71 0zm.46.87c.01-.14.1-.57.2-.87.14-.38.07-.92-.1-1.25a1.74 1.74 0 01-.21-.94s-.32.1-.5.22c-.03.38.2.76.3.98.12.26.1.59.06.8-.04.34.03.71.25 1.06zm.04-2.92a.45.45 0 01.01-.2s.5-.5.9-.59a.55.55 0 01.5.14s-.14-.02-.36.16c-.22.19-.5.41-.7.47-.2.05-.25.04-.35.02zm1.46-.62c.18.2.34.4.34.57 0 .18-.21.63-.32.8-.1.18-.26.4-.24.68 0 .14.1.28.2.4 0 0-.6-.15-.67-.53-.06-.34.08-.58.17-.77.1-.18.37-.6.44-.77.07-.16.1-.29.08-.38zm3.52 4.32c.12.44.33.85.53 1.17.18.3.3.78.28.94 0 0 .27-.62.13-1.06a1.7 1.7 0 00-.94-1.05zm.68.14s.42.01.61.14c.25.17.48.54.58.98 0 0-.42-.07-.63-.28-.2-.22-.46-.54-.56-.84zm-2.14.77c-.13.02-.26.05-.4.1 0 0 .36.1.53.25.15.12.28.32.34.65.09.46.35.96.43 1.11h.04a2.9 2.9 0 01.19-1.08s-.28-.18-.4-.37c-.1-.13-.27-.36-.73-.66zm1.83 1c.1.24.38.67.25 1.12-.13.45-.41.64-.59 1.02 0 0-.14-.68-.1-1.21.02-.54.21-.74.44-.93zm.8.01s.41.82.48 1.15c.08.31.01.53-.13.72-.14.2-.38.4-.6.8 0 0-.25-.34-.28-.52-.03-.18.02-.61.07-.8.06-.17.28-.75.46-1.35zm.21 2.62c-.1.1-.57.7-.64.87-.06.17-.17.5-.02.73.15.23.49.59.79.74 0 0-.33-.52-.3-.94.03-.28.23-.52.27-.69.04-.17.02-.45-.1-.7zm-.94-.33c.07.11.2.37.22.62.02.24-.02.44-.15.8-.16.4-.34.8-.54 1.18 0 0-.23-.33-.35-.62 0 0 .35-.5.5-.85.18-.42.25-.8.32-1.13zm-.17-.19s-.15 1.17-.81 2.04c-.46.58-.82.79-1.07.79-.36 0-.73-.32-.86-.68-.12-.36-.08-.91.15-1.11 0 0 .23.7.7.72.53.03 1.21-.58 1.9-1.76z" clip-rule="evenodd"/>
  <path fill="#1937FF" fill-rule="evenodd" d="M70.37 18.03c.05.21.07.53 0 .84-.06.23-.2.53-.46.7-.22.14-.75.17-.96-.34 0 0 .97.07 1.42-1.2zm1.59 4.71c.13.35.6.8.6 1.07 0 .73-.31 1.17-.39 1.41 0 0-.56-.46-.66-.99-.05-.27 0-1.08.45-1.49zm-.64.52c.07-.2.28-.7.52-.88 0 0 .3-.94-.68-1.5 0 0-.41.55-.52 1.07-.1.52.44.84.68 1.3zM70.1 20.9c-.16.2-.39.47-.56.55 0 0-.06.42-.03.7.05.4.3.82.42 1.13 0 0 .43-.58.48-.92.05-.35.04-.63.06-.79 0 0-.24-.4-.37-.67zm-1.14 1.99a3.4 3.4 0 01-.53-1.41s.49.27.9.07c0 0 .05.67-.03.9a.88.88 0 01-.34.44zm.1.14c.09-.07.28-.25.36-.35 0 0 .32.61.38.79 0 0-.16.04-.34-.1a2.6 2.6 0 01-.4-.34zm1.5-.36c-.03.16-.56.9-.65 1a2.93 2.93 0 00.84 1.46s.33-.58.43-.84c.1-.29.1-.58.05-.68-.11-.25-.5-.62-.66-.94zm.8 1.96c.11.24.46.64.51.95.05.25 0 .45-.06.62-.06.17-.27.5-.41.75 0 0-.48-.47-.58-.8a1.2 1.2 0 01.06-.82c.12-.23.37-.47.48-.7zm-1.36-.06c.12.27.42.55.49.8.08.28.1.47-.03.8-.12.3-.27.47-.32.65 0 0-.39-.52-.45-.74a1.48 1.48 0 010-.8c.08-.22.22-.51.3-.71zm1.91 1.96s-.67.83-.65 1.27c.02.55.37.92.42 1.26 0 0 .35-.41.49-.69.15-.3.26-.57.22-.91-.04-.35-.13-.58-.48-.93zm-1.23-.08c.1.16.4.7.32 1.03-.08.32-.41.78-.52.97 0 0-.27-.56-.33-.81-.06-.26 0-.67.53-1.19zm6.69-13.7c0-.07-.3-.13-.69-.13-.37 0-.68.06-.68.13s.3.12.68.12c.38 0 .69-.05.69-.12zm-4.64-2.15c.04-.32.4-.99.4-1.28a.41.41 0 00-.41-.41.41.41 0 00-.4.41c0 .3.35.96.4 1.28zm1.12.67c.36-.86.59-1.5.58-1.71 0-.13-.15-.23-.3-.27-.14-.05-.26-.06-.35.02-.18.14-.35 1.3-.42 1.79.18.04.29.06.5.17zm-.64-.19l-.27-.02c.05-.46.2-1.23.3-1.53.1-.3.2-.53.4-.58 0 0-.15.42-.23.86-.08.42-.14.85-.2 1.27zm.33 1.03s.4.42.79.52c0 0-.17-.43-.79-.52zm-.32-.2c.21-.03.77.03 1.1.28.34.25.45.45.57.67 0 0-.6.05-1.15-.27a1.47 1.47 0 01-.52-.68zm3.45 2.04c.14-.1.22-.25.25-.45 0 0-.63.03-1.16-.04v.04s.87 0 .9.45zm-.23.58c.02-.12.01-.33.01-.33-.31.3-.96.52-.96.52.01-.18.07-.33.07-.33-.28.17-.43.15-.43.15.03-.21.17-.46.17-.46a.66.66 0 01-.44.26c-.04-.12.04-.43.04-.43-.1.13-.28.45-.84.57-.56.13-.81-.2-.81-.2.54.04 1.06-.5 1.06-.5a.72.72 0 01-.39-.33c.17-.15.34-.15.34-.15a.7.7 0 01-.4-.41c.41.2 1.65.21 2.32.25.68.03 1.35-.23 1.35-.23-.08 1.52-1.09 1.62-1.09 1.62zm1.24-1.51c-.02.33-.1.65-.21.88 0 0 .4-.3.49-.57.1-.26.12-.43-.28-.31zm.96 1.08a.17.17 0 00-.1-.16.17.17 0 00-.06-.01.17.17 0 00-.17.17c0 .09.08.16.17.16a.17.17 0 00.16-.16zm-.26-.75c.22-.06.7-.11.9.2.2.32.13.9-.29 1.15 0 0-.63-.56-1.4 0 0 0-.18-.12-.58-.22 0 0 .23-.29.5-.41.24-.12.73-.26.87-.72zm-1.46 1.24s-.28.38-.48.55c0 0 1.03-.01 1.3.91 0 0 .35-.56.09-.93-.28-.4-.54-.45-.91-.53z" clip-rule="evenodd"/>
  <path fill="#1937FF" fill-rule="evenodd" d="M75.77 14.83l-.44.13v-.3c-.1.03-.23.06-.33.07 0 0-.34.77-.6 1.08 0 0-.01.17.13.42 0 0 .2-.45.53-.81.2-.2.32-.31.71-.6zm.88-.17c-.1.03-.64.2-.9.4-.32.23-.55.5-.51.98 0 0 .26-.37.55-.54.23-.14.64-.5.86-.84zm0-3.46c-.1 0-.3.04-.3.2 0 .17.25.57.32.74.07-.17.32-.57.32-.73 0-.17-.2-.21-.29-.21h-.05zm.21 1.27c.05-.23.14-.83.27-.96.14-.13.33-.14.42-.13a.19.19 0 01.16.24c-.04.14-.47.8-.52.88-.1-.02-.08-.01-.33-.03zm-.38 0c-.05-.23-.13-.83-.27-.96-.13-.13-.32-.14-.42-.13a.18.18 0 00-.16.24c.04.14.47.8.53.88.1-.02.08-.01.32-.03zm-.27-2.08h.33v-.38h.27v.38h.34v.24h-.34v.45h-.27v-.45h-.33v-.24zm-4.02-2.25h.34v-.38h.27v.38h.33v.24h-.33v.45h-.27v-.45h-.34v-.24zm8.07 4.7c0-.07 0-.14-.02-.21a1.77 1.77 0 010-.48c.23.1.4.16.73.7 0 0-.53-.33-.71 0zM79.8 13.72c-.01-.14-.1-.57-.2-.87-.14-.38-.07-.92.1-1.25.15-.31.24-.61.21-.94 0 0 .31.1.5.22.02.38-.2.76-.3.98-.12.26-.1.59-.06.8.04.34-.03.71-.26 1.06zm-.04-2.92a.43.43 0 00-.01-.2s-.5-.5-.9-.59a.55.55 0 00-.5.14s.14-.02.36.16c.22.19.5.41.7.47.2.05.25.04.35.02zm-1.46-.62c-.18.2-.34.4-.34.57 0 .18.21.63.32.8.1.18.26.4.24.68a.7.7 0 01-.2.4s.6-.15.67-.53c.06-.34-.08-.58-.17-.77-.1-.18-.37-.6-.44-.77-.07-.16-.1-.29-.08-.38zm-3.52 4.32c-.12.41-.3.8-.53 1.17-.18.3-.3.78-.28.94 0 0-.27-.62-.13-1.06.1-.33.4-.84.94-1.05zm-.68.14s-.42.01-.61.14a1.6 1.6 0 00-.58.98s.42-.07.63-.28c.2-.22.46-.54.56-.84zm2.14.77a3 3 0 01.4.1s-.36.1-.53.25c-.15.12-.28.32-.34.65-.09.46-.35.96-.43 1.11h-.04a2.9 2.9 0 00-.19-1.08s.28-.18.4-.37c.1-.13.27-.36.73-.66zm-1.83 1c-.1.24-.38.67-.25 1.12.12.45.41.64.59 1.02 0 0 .14-.68.1-1.21-.02-.54-.21-.74-.44-.93zm-1.7 1.25c.02-.26.62-.9.59-1.24-.03-.34-.48-.58-.59-.63-.11.05-.56.3-.59.63-.03.35.57.98.58 1.24h.02zm.9-1.24s-.41.82-.48 1.15c-.08.31-.01.53.13.72.14.2.38.4.6.8 0 0 .25-.34.28-.52.03-.18-.02-.61-.07-.8-.06-.17-.28-.75-.46-1.35zm-.9 3.18c.2-.17.36-.42.41-.56.05-.15.07-.37-.06-.53-.15-.2-.33-.42-.35-.6-.02.18-.2.4-.36.6-.12.16-.1.38-.05.53.05.14.22.39.4.56h.01zm.7-.56c.08.1.56.7.63.87.06.17.17.5.02.73-.15.23-.49.59-.79.74 0 0 .33-.52.3-.94-.03-.28-.23-.52-.27-.69-.04-.17-.02-.45.1-.7zm.93-.33c-.12.19-.2.4-.22.62-.02.24.02.44.15.8.17.45.42.96.54 1.18 0 0 .23-.33.35-.62 0 0-.35-.5-.5-.85-.18-.42-.25-.8-.32-1.13zm.17-.19s.15 1.17.81 2.04c.46.58.82.79 1.07.79.37 0 .73-.32.86-.68.12-.36.08-.91-.16-1.11 0 0-.22.7-.69.72-.53.03-1.21-.58-1.9-1.76z" clip-rule="evenodd"/>
  <path fill="#1937FF" fill-rule="evenodd" d="M75.05 18.03a1.8 1.8 0 000 .84c.06.23.2.53.45.7.23.14.76.17.97-.34 0 0-.98.07-1.42-1.2zm-1.93 3.1c.13-.19.24-.55.18-.8-.09-.32-.25-.45-.35-.65-.09.08-.14.14-.24.2-.1-.06-.16-.12-.24-.2-.1.2-.27.33-.35.64-.06.26.05.62.18.82.15.24.27.3.4.36.15-.07.26-.12.42-.36zm-.41 2.34c.07-.3.7-.9.64-1.23-.09-.49-.4-.39-.64-.6-.24.21-.55.11-.64.6-.05.32.57.92.64 1.23zm.75-.73c-.13.35-.6.8-.6 1.07 0 .73.31 1.17.39 1.41 0 0 .56-.46.66-.99.05-.27 0-1.08-.45-1.49zm.63.52c-.06-.2-.27-.7-.51-.88 0 0-.31-.94.68-1.5 0 0 .4.55.52 1.07.1.52-.43.84-.69 1.3zm1.24-2.35c.16.2.39.47.56.55 0 0 .06.42.03.7-.05.4-.31.82-.42 1.13 0 0-.43-.58-.48-.92-.05-.35-.04-.63-.06-.79 0 0 .24-.4.37-.67zm1.14 1.99c.13-.2.52-.9.53-1.41 0 0-.49.27-.9.07 0 0-.05.67.03.9.06.18.15.29.34.44zm-.1.14a4.07 4.07 0 01-.36-.35s-.33.61-.38.79c0 0 .16.04.34-.1.18-.12.22-.16.4-.34zm-1.5-.36c.03.16.55.9.64 1 0 0-.04.27-.23.66-.16.3-.36.57-.6.8 0 0-.33-.58-.43-.84-.1-.29-.1-.58-.05-.68.11-.25.5-.62.66-.94zm-1.68 3.63a.86.86 0 000-.63c-.1-.2-.44-.67-.48-.81-.04.14-.38.62-.47.81a.85.85 0 00-.01.63c.12.35.42.6.47.8h.01c.05-.2.35-.45.48-.8zm.88-1.67c-.11.24-.46.64-.51.95-.05.25 0 .45.06.62.06.17.27.5.41.75 0 0 .48-.47.58-.8.08-.25.05-.6-.06-.82-.12-.23-.37-.47-.48-.7zm1.36-.06c-.13.27-.42.55-.49.8-.08.28-.1.47.03.8.12.3.27.47.32.65 0 0 .38-.52.45-.74.06-.21.08-.57 0-.8-.08-.22-.22-.51-.31-.71zm-2.72 6.5c.02-.25.53-1.04.56-1.87 0-.41-.35-1.06-.56-1.3-.21.24-.57.89-.56 1.3.03.83.53 1.62.56 1.87zm.8-4.54s.67.83.66 1.27c-.02.55-.38.92-.43 1.26 0 0-.35-.41-.48-.69-.15-.3-.26-.57-.22-.91.04-.35.13-.58.48-.93zm1.24-.08c-.1.16-.4.7-.32 1.03.08.32.41.78.52.97 0 0 .27-.56.33-.81.05-.26 0-.67-.53-1.19z" clip-rule="evenodd"/>
  <path fill="#1937FF" fill-rule="evenodd" d="M73.17 32.41c.04-.64.4-1.03.45-1.37.07-.36.05-.72-.23-1.14-.17.6-.4 1.2-.67 1.77l-.01.03-.02-.03c-.27-.57-.5-1.16-.66-1.77-.28.42-.3.78-.24 1.14.07.34.42.73.46 1.37.04.65-.67.9-.67.9.24.08.51.12.95-.3a.9.9 0 00.18-.25c.04.09.1.17.18.25.43.42.7.38.94.3 0 0-.7-.25-.66-.9zm-2.23-4.3c.08.25.3.7.32.83.06.26-.02.57-.47.9 0 0-.3-.21-.41-.5-.1-.25-.05-.44.07-.57.11-.14.38-.45.49-.65zm.95.96c0 .13-.09.86-.3 1.23-.27.5-.7.89-1.06.89-.33 0-.4-.21-.57-.3 0 0 .08-.44.46-.55a3.06 3.06 0 001.47-1.27z" clip-rule="evenodd"/>
  <path fill="#1937FF" fill-rule="evenodd" d="M70.68 30c-.08-.06-.15-.1-.24-.21 0 0-.36.14-.66.34-.3.2-.59.55-.74.74 0 0 .44.12.72-.02 0 0 .1-.43.42-.63.07-.04.3-.1.5-.21zm-.37-.37c-.07-.1-.21-.31-.18-.63 0 0-.62.4-.81.56-.19.16-.58.57-.67.7 0 0 .48-.1.84-.22.4-.14.67-.32.82-.4zm-1.06.7c-.33.12-1.1.25-1.4.34-.32.1-.55.27-.86.6l.72.22s.4-.28.82-.45c.29-.1.42-.41.72-.71zm-.7 2.29c.07-.08.16-.18.1-.37-.06-.14-.33-.3-.5-.38-.27-.13-1.02-.34-1.26-.41 0 0-.13.14-.2.3-.02.06.02.12.12.14.21.04.72-.06.84.02.13.09.09.21.09.33 0 0 .23-.15.37-.11.2.04.32.14.44.48zm-.67-1.08c.05.02.35.12.63.3 0 0 .13-.05.2-.17.05-.11.3-.5.54-.56 0 0-.2-.02-.31-.05 0 0-.25.06-.42.13-.17.07-.39.19-.64.35zm1.94-.49c-.05.02-.12.06-.3.07 0 0-.66.47-.74.94-.06.4.14.6.24.64.1.06.56.25.86-.38 0 0-.5.17-.65-.09-.14-.25.09-.62.23-.72.18-.14.51-.24.7-.2 0 0-.15-.16-.34-.26z" clip-rule="evenodd"/>
  <path fill="#1937FF" fill-rule="evenodd" d="M65.49 36.45c.08-.35.17-.71.32-1.05.3-.65 1.03-2.38 2.56-2.69.15-.02-.16-.39-.3-.37-.14.02-.41.2-.53.28v-.44c0-.06-.06-.09-.12-.08-.06 0-.43 0-.55.13-.35.42-.94 1.53-1.27 2.36-.33.83-.56 1.09-.91.96-.35-.13-.56-.54-1.18-.42-.2.05-.45.2-.63.41.05.1.12.22.4.22.29 0 .84.13 1.14.35.3.22.63.29 1.07.34zm6.1-5.37c.03.26.16.52.3.78 0 0-.47 2.2-2.15 2.38 0 0 .04-.46.53-.81.5-.35 1.25-.89 1.2-1.71 0 0-.14.03-.38.34-.24.3-.76 1.2-1.57 1.2 0 0 .11-.42.47-.66.36-.24.82-.54 1.03-.92.2-.36.42-.53.57-.6zm-.8 8.04l1.03 1.47.78-1.42-.28-.5-.54 1-.7-1-.28.45z" clip-rule="evenodd"/>
  <path fill="#1937FF" fill-rule="evenodd" d="M70.53 37.87l-2.35-3.4.38-.28-1.22-.48.03 1.37.4-.31 2.47 3.55.3-.45zm-8.42-8.07c.3-.34.82-.05 1.33.44.52.49.84.99.54 1.33-.28.3-.81.04-1.33-.45-.51-.48-.84-.98-.54-1.32z" clip-rule="evenodd"/>
  <path fill="#1937FF" fill-rule="evenodd" d="M62.95 35.8a1.4 1.4 0 01-.48-1.08c0-.8.63-1.45 1.4-1.45.78 0 1.41.65 1.41 1.45l-.02.28c.07-.12.3-.68.35-.78a1.8 1.8 0 00-1.73-1.35c-.71 0-1.32.43-1.62 1.04.12-.73.47-1.39.72-1.63.3-.29.8-.38.8-.38-.33.05-.77-.16-1.26-.62-.47-.45-.7-.83-.72-1.15.03.45.01.7-.11 1.08-.17.5-.64 1.43-.47 2.48.1.58.5 1.44 1.18 2.14a1 1 0 01.21.51s1 0 1.24.02c0 0 .24-.02.24-.17 0-.16-.14-.2-.26-.2-.11 0-.62.02-.88-.19zm5.54.35a9.6 9.6 0 01-3.05.53c0 .07 0 .14-.03.2 0 0 .07.1.07.2a9.96 9.96 0 003.25-.59l-.24-.34zm1.06-.05a6.9 6.9 0 002.44-2.4l.14-.24c-.2.1-.47.03-.47.03l-.07.1a6.44 6.44 0 01-2.27 2.18l.23.33zm-5.64.38c-.12-.02-.5-.01-.72.02-.25.04-.53.1-.56.24-.02.13.07.27.19.47.08.13.26.05.36.02.1-.04.68-.36.78-.47.09-.1.13-.25-.05-.28zm.59.4a.43.43 0 00-.37-.05c-.16.06-.73.4-.77.57-.03.16.04.24.13.28.09.04.2.07.28.08a.43.43 0 00.35-.17c.07-.09.34-.42.38-.5.04-.07.06-.18 0-.22zm.07.36c-.12.13-.23.28-.34.42-.03.05.01.13.08.12.08 0 .47-.05.7-.21.22-.16.37-.46.21-.57-.15-.12-.39-.07-.65.24zm.12-.88c-.07-.02-.37-.1-.43 0-.08.13-.02.26.2.38.24.1.67.2.76.08.08-.13-.04-.33-.53-.46zm9.79-8.24c-.08.24-.3.68-.32.82-.06.26.01.57.47.9 0 0 .3-.21.4-.5.12-.25.05-.44-.06-.57-.11-.14-.38-.45-.5-.65zm-.96.95c0 .13.1.86.3 1.23.28.5.7.89 1.06.89.34 0 .41-.21.58-.3 0 0-.08-.44-.47-.55a3.08 3.08 0 01-1.47-1.27zm1.22.94c.08-.07.15-.1.24-.22 0 0 .36.14.66.34.3.2.58.55.74.74 0 0-.44.12-.72-.02 0 0-.1-.43-.42-.63-.07-.04-.3-.1-.5-.21zm.37-.38c.07-.1.21-.31.18-.63 0 0 .62.4.81.56.19.16.58.57.67.7 0 0-.48-.1-.84-.22-.4-.14-.67-.32-.82-.4zm1.06.7c.33.12 1.09.25 1.4.34.32.1.55.27.85.6l-.7.22s-.4-.28-.84-.45c-.28-.1-.41-.41-.71-.71zm.7 2.29c-.07-.08-.16-.18-.1-.37.06-.14.33-.3.5-.38.27-.13 1.02-.34 1.26-.41 0 0 .12.14.19.3.03.06 0 .12-.12.14-.2.04-.71-.06-.83.02-.13.09-.09.21-.09.33 0 0-.23-.15-.37-.11-.2.04-.33.14-.44.48zm.67-1.08c-.05.02-.35.12-.63.3 0 0-.13-.05-.2-.17-.05-.11-.31-.5-.54-.56 0 0 .2-.02.3-.05.01 0 .26.06.43.13.17.07.39.19.64.35zm-1.94-.49c.05.02.12.06.3.07 0 0 .66.47.74.94.06.4-.14.6-.24.64-.1.06-.56.25-.87-.38 0 0 .52.17.66-.09.14-.25-.09-.62-.23-.72a1.07 1.07 0 00-.71-.2s.16-.16.35-.26z" clip-rule="evenodd"/>
  <path fill="#1937FF" fill-rule="evenodd" d="M79.93 36.45a5.46 5.46 0 00-.32-1.05c-.3-.65-1.03-2.38-2.56-2.69-.15-.02.16-.39.3-.37.14.02.41.2.53.28v-.44c0-.06.06-.09.12-.08.06 0 .43 0 .55.13.35.42.93 1.53 1.27 2.36.33.83.56 1.09.91.96.35-.13.56-.54 1.18-.42.2.05.44.2.63.41-.05.1-.12.22-.4.22-.3 0-.84.13-1.14.35-.3.22-.63.29-1.07.34zm-6.1-5.37c-.03.26-.16.52-.3.78 0 0 .47 2.2 2.15 2.38 0 0-.04-.46-.53-.81-.5-.35-1.25-.89-1.2-1.71 0 0 .14.03.38.34.24.3.76 1.2 1.57 1.2 0 0-.12-.42-.47-.66a3.18 3.18 0 01-1.03-.92 1.4 1.4 0 00-.57-.6zm-1.12 2.14c.1.3.74 1.21 1.02 1.48.28.26.95.96 1.32 1.31 0 0-1.04-.26-1.62-.8 0 0-.41.24-.71.24h-.02c-.3 0-.72-.25-.72-.25-.58.55-1.6.81-1.6.81.35-.35 1.03-1.05 1.31-1.31s.92-1.19 1.02-1.48z" clip-rule="evenodd"/>
  <path fill="#1937FF" fill-rule="evenodd" d="M72.72 35.67c.22 0 .44-.1.56-.15-.12.26-.35.67-.57.85a2.65 2.65 0 01-.57-.85c.12.05.33.15.56.15h.02z" clip-rule="evenodd"/>
  <path fill="#1937FF" fill-rule="evenodd" d="M73.6 40.6l4.04-5.83.41.3.03-1.36-1.23.48.39.29-3.6 5.18-1.83-3.4-.22.35-1.63 2.53-.4-.28-.02 1.34 1.24-.5-.41-.28 1.4-2.18 1.83 3.35z" clip-rule="evenodd"/>
  <path fill="#1937FF" fill-rule="evenodd" d="M74.34 38.3l-.69-1.06-.54 1-.29-.53.79-1.46.22.36.81 1.26-.3.43zm.83.38l.29.46.4-.28.01 1.34-1.23-.5.41-.28-.19-.3.3-.44zm8.13-8.88c-.3-.34-.8-.05-1.33.44-.51.49-.84.99-.54 1.33.28.3.82.04 1.33-.45.52-.48.85-.98.54-1.32z" clip-rule="evenodd"/>
  <path fill="#1937FF" fill-rule="evenodd" d="M82.47 35.8a1.39 1.39 0 00.48-1.08c0-.8-.63-1.45-1.4-1.45-.78 0-1.41.65-1.41 1.45l.02.28c-.07-.12-.3-.68-.35-.78a1.8 1.8 0 011.73-1.35c.71 0 1.32.43 1.61 1.04a3.24 3.24 0 00-.71-1.63c-.3-.29-.81-.38-.81-.38.33.05.77-.16 1.27-.62.46-.45.7-.83.72-1.15-.03.45-.02.7.1 1.08.18.5.64 1.43.48 2.48-.1.58-.5 1.44-1.18 2.14a.98.98 0 00-.21.51s-1 0-1.25.02c0 0-.23-.02-.23-.17 0-.16.14-.2.25-.2.13 0 .62.02.9-.19zm-6.6.3a6.92 6.92 0 01-2.44-2.4l-.14-.24c.2.1.47.03.47.03l.06.1a6.44 6.44 0 002.28 2.18l-.23.33zm1.05.05a9.55 9.55 0 003.06.53c0 .07 0 .14.03.21 0 0-.07.09-.07.19a9.94 9.94 0 01-3.25-.59l.23-.34zm4.59.33c.12-.02.5-.01.72.02.24.04.52.1.55.24.03.13-.06.27-.18.47-.08.13-.26.05-.36.02-.1-.04-.68-.36-.78-.47-.1-.1-.13-.25.05-.28zm-.6.4a.43.43 0 01.38-.05c.15.06.72.4.76.57.04.16-.04.24-.12.28-.1.04-.18.06-.28.08a.43.43 0 01-.35-.17c-.08-.09-.34-.42-.38-.5-.04-.07-.06-.18 0-.22zm-.06.36l.34.42c.03.05-.01.13-.08.12-.08 0-.47-.05-.7-.21-.22-.16-.37-.46-.22-.57.16-.12.4-.07.66.24zm-.13-.88c.08-.02.37-.1.44 0 .08.13.02.26-.2.38-.24.1-.67.2-.76.08-.08-.13.04-.33.52-.46z" clip-rule="evenodd"/>
</svg>
